<svg width="128" height="128" viewBox="0 0 128 128" fill="none" xmlns="http://www.w3.org/2000/svg">
<g clip-path="url(#clip0_101_2)">
<path d="M38.2306 75.2306C35.0224 75.2306 32.2371 76.996 30.7246 79.5895C29.9748 80.8754 29.5127 82.3575 29.5127 83.9485C29.5127 88.7521 33.4227 92.6664 38.2306 92.6664C43.0385 92.6664 46.9485 88.7521 46.9485 83.9485C46.9485 82.3575 46.4908 80.8754 45.7367 79.5895C44.2241 76.996 41.4432 75.2306 38.2306 75.2306Z" fill="#3B3C98"/>
<path d="M99.256 75.2306C96.0478 75.2306 93.2625 76.996 91.7499 79.5895C91.0002 80.8754 90.5381 82.3575 90.5381 83.9485C90.5381 88.7521 94.4481 92.6664 99.256 92.6664C104.064 92.6664 107.974 88.7521 107.974 83.9485C107.974 82.3575 107.516 80.8754 106.762 79.5895C105.249 76.996 102.469 75.2306 99.256 75.2306Z" fill="#3B3C98"/>
<path d="M125.41 66.5127V62.1537L99.256 54.6781L68.7433 36H20.7948V40.359H46.9485V44.7179H-1V49.0769H51.3075V53.4358H7.71791V57.7948H29.5127V62.1537H20.7948V66.5127H3.35896V70.8717H25.1537V75.2306H20.7948V79.5896H7.71791V83.9485H25.1537C25.1537 82.4142 25.4675 80.9583 25.9557 79.5896C27.7604 74.5245 32.5465 70.8717 38.2306 70.8717C43.919 70.8717 48.7009 74.5245 50.5055 79.5896C50.9893 80.9583 51.3075 82.4142 51.3075 83.9485H86.1791C86.1791 82.4142 86.4929 80.9583 86.9811 79.5896C88.7858 74.5245 93.5719 70.8717 99.256 70.8717C104.944 70.8717 109.726 74.5245 111.531 79.5896C112.015 80.9583 112.333 82.4142 112.333 83.9485H125.41V79.5896H129.769V66.5127H125.41Z" fill="#3B3C98"/>
</g>
<defs>
<clipPath id="clip0_101_2">
<rect width="128" height="128" fill="white"/>
</clipPath>
</defs>
</svg>
